Coordinates
version=1
nRows=16
nColumns=38
inDegrees=no

Units are S.I. units (second, meters, Newtons, ...)
If the header above contains a line with 'inDegrees', this indicates whether rotational values are in degrees (yes) or radians (no).

endheader
time	pelvis_tilt	pelvis_list	pelvis_rotation	pelvis_tx	pelvis_ty	pelvis_tz	hip_flexion_r	hip_adduction_r	hip_rotation_r	knee_angle_r	ankle_angle_r	subtalar_angle_r	mtp_angle_r	hip_flexion_l	hip_adduction_l	hip_rotation_l	knee_angle_l	ankle_angle_l	subtalar_angle_l	mtp_angle_l	lumbar_extension	lumbar_bending	lumbar_rotation	arm_flex_r	arm_add_r	arm_rot_r	elbow_flex_r	pro_sup_r	wrist_flex_r	wrist_dev_r	arm_flex_l	arm_add_l	arm_rot_l	elbow_flex_l	pro_sup_l	wrist_flex_l	wrist_dev_l
75.00000000	-0.01704829	0.21637106	-0.09464556	0.06224629	0.89510612	-0.01769889	0.28660583	-0.34437537	0.02588622	1.22902077	-0.11240658	0.00000000	0.00000000	0.34723249	0.24137214	-0.24129802	0.53448990	0.22485756	0.00000000	0.00000000	-0.13420789	-0.25644766	0.30153150	-0.04990420	-0.23173308	-0.12352220	0.79289236	1.41764271	0.00000000	0.00000000	-0.09540013	-0.24629571	0.20788868	0.40153068	1.57080000	0.00000000	0.00000000
75.01000000	-0.01981219	0.20792336	-0.10245644	0.06081086	0.89648261	-0.01758144	0.32777189	-0.32490088	0.04462811	1.23802900	-0.08221580	0.00000000	0.00000000	0.33286520	0.23444298	-0.24031113	0.53029299	0.23664865	0.00000000	0.00000000	-0.13581320	-0.24497886	0.29783809	-0.04886330	-0.22547533	-0.11283253	0.73987560	1.41454433	0.00000000	0.00000000	-0.07116331	-0.24142751	0.20765879	0.40670979	1.57080000	0.00000000	0.00000000
75.02000000	-0.02142307	0.19932577	-0.10838736	0.05949556	0.89813671	-0.01757678	0.36416663	-0.30534670	0.05905987	1.23972883	-0.05322762	0.00000000	0.00000000	0.31536151	0.22837191	-0.23797320	0.52311453	0.24646655	0.00000000	0.00000000	-0.13905647	-0.23311087	0.29181248	-0.04791427	-0.21867348	-0.10526160	0.68614331	1.41095389	0.00000000	0.00000000	-0.04762373	-0.23726427	0.20521273	0.41490010	1.57080000	0.00000000	0.00000000
75.03000000	-0.02164220	0.19053609	-0.11240120	0.05831060	0.90003809	-0.01771300	0.39558868	-0.28664894	0.06866689	1.23423487	-0.02462137	0.00000000	0.00000000	0.29470468	0.22306561	-0.23418575	0.51341215	0.25457990	0.00000000	0.00000000	-0.14414584	-0.22079362	0.28353269	-0.04738127	-0.21145579	-0.10180526	0.63267997	1.40756309	0.00000000	0.00000000	-0.02491357	-0.23383447	0.20088678	0.42644261	1.57080000	0.00000000	0.00000000
75.04000000	-0.02057124	0.18152010	-0.11454100	0.05723100	0.90211977	-0.01799860	0.42234999	-0.26944381	0.07327973	1.22178543	0.00389062	0.00000000	0.00000000	0.27140311	0.21830107	-0.22894742	0.50185740	0.26124178	0.00000000	0.00000000	-0.15092357	-0.20799488	0.27319481	-0.04736299	-0.20392852	-0.10345376	0.58015300	1.40522907	0.00000000	0.00000000	-0.00305625	-0.23118597	0.19519915	0.44140181	1.57080000	0.00000000	0.00000000
75.05000000	-0.01847824	0.17242407	-0.11487227	0.05623364	0.90429892	-0.01841818	0.44497165	-0.25422810	0.07304058	1.20270572	0.03178335	0.00000000	0.00000000	0.24617493	0.21392260	-0.22250463	0.48916115	0.26653656	0.00000000	0.00000000	-0.15899783	-0.19491033	0.26099246	-0.04783600	-0.19611603	-0.11107190	0.52902246	1.40475636	0.00000000	0.00000000	0.01801233	-0.22948529	0.18880205	0.45962791	1.57080000	0.00000000	0.00000000
75.06000000	-0.01566886	0.16356789	-0.11341869	0.05531355	0.90649353	-0.01893929	0.46397305	-0.24141552	0.06832789	1.17737811	0.05792556	0.00000000	0.00000000	0.21971630	0.20991331	-0.21524696	0.47594458	0.27033950	0.00000000	0.00000000	-0.16788632	-0.18195202	0.24704813	-0.04883227	-0.18801701	-0.12509836	0.47980506	1.40663719	0.00000000	0.00000000	0.03843000	-0.22902301	0.18248662	0.48083143	1.57080000	0.00000000	0.00000000
75.07000000	-0.01245381	0.15527688	-0.11014479	0.05447890	0.90863050	-0.01952246	0.47980484	-0.23122805	0.05967930	1.14619706	0.08110779	0.00000000	0.00000000	0.19260327	0.20629055	-0.20751981	0.46261762	0.27247400	0.00000000	0.00000000	-0.17709609	-0.16953840	0.23141471	-0.05051437	-0.17968551	-0.14527774	0.43316727	1.41079863	0.00000000	0.00000000	0.05836511	-0.23012176	0.17700816	0.50459574	1.57080000	0.00000000	0.00000000
75.08000000	-0.00917706	0.14768429	-0.10502904	0.05373400	0.91064316	-0.02012349	0.49289596	-0.22351410	0.04772846	1.10953291	0.10056754	0.00000000	0.00000000	0.16536221	0.20290445	-0.19953404	0.44942383	0.27299364	0.00000000	0.00000000	-0.18614108	-0.15785780	0.21414998	-0.05309805	-0.17125065	-0.17071631	0.38979564	1.41658304	0.00000000	0.00000000	0.07794812	-0.23300907	0.17280105	0.53039456	1.57080000	0.00000000	0.00000000
75.09000000	-0.00623578	0.14065177	-0.09816627	0.05306384	0.91246592	-0.02069413	0.50371170	-0.21770305	0.03309142	1.06769613	0.11617436	0.00000000	0.00000000	0.13860777	0.19933860	-0.19140076	0.43662800	0.27235664	0.00000000	0.00000000	-0.19454534	-0.14678132	0.19541307	-0.05674767	-0.16289517	-0.20018374	0.35026481	1.42307252	0.00000000	0.00000000	0.09724415	-0.23774094	0.16993039	0.55771002	1.57080000	0.00000000	0.00000000
75.10000000	-0.00404190	0.13388284	-0.08979444	0.05243434	0.91403695	-0.02119121	0.51273054	-0.21303138	0.01622350	1.02087813	0.12820220	0.00000000	0.00000000	0.11304167	0.19506573	-0.18318390	0.42458652	0.27127093	0.00000000	0.00000000	-0.20186826	-0.13599910	0.17548073	-0.06155196	-0.15483220	-0.23238084	0.31502211	1.42955885	0.00000000	0.00000000	0.11628012	-0.24420693	0.16824058	0.58613443	1.57080000	0.00000000	0.00000000
75.11000000	-0.00293858	0.12713363	-0.08022495	0.05180645	0.91530787	-0.02158952	0.52036290	-0.20888927	-0.00265250	0.96914169	0.13694888	0.00000000	0.00000000	0.08929616	0.18973792	-0.17488283	0.41365899	0.27031060	0.00000000	0.00000000	-0.20775472	-0.12526146	0.15465867	-0.06756440	-0.14727814	-0.26607319	0.28443182	1.43587717	0.00000000	0.00000000	0.13509052	-0.25218718	0.16745279	0.61528839	1.57080000	0.00000000	0.00000000
75.12000000	-0.00311892	0.12034084	-0.06975622	0.05115234	0.91625036	-0.02188539	0.52689752	-0.20499062	-0.02350269	0.91255396	0.14242279	0.00000000	0.00000000	0.06778248	0.18334641	-0.16640883	0.40414599	0.26971149	0.00000000	0.00000000	-0.21199274	-0.11452579	0.13318641	-0.07484067	-0.14040667	-0.30014750	0.25879130	1.44241403	0.00000000	0.00000000	0.15375099	-0.26143295	0.16723760	0.64466713	1.57080000	0.00000000	0.00000000
75.13000000	-0.00457113	0.11361852	-0.05865564	0.05046872	0.91685718	-0.02208872	0.53250041	-0.20128498	-0.04630569	0.85139378	0.14409138	0.00000000	0.00000000	0.04859350	0.17618108	-0.15765995	0.39624577	0.26949248	0.00000000	0.00000000	-0.21455491	-0.10395523	0.11123483	-0.08344309	-0.13429657	-0.33364617	0.23827809	1.44979575	0.00000000	0.00000000	0.17235078	-0.27174308	0.16735461	0.67369414	1.57080000	0.00000000	0.00000000
75.14000000	-0.00707498	0.10718497	-0.04718995	0.04978512	0.91713834	-0.02221262	0.53724512	-0.19776370	-0.07078924	0.78629063	0.14084299	0.00000000	0.00000000	0.03145272	0.16867922	-0.14867832	0.38993284	0.26960205	0.00000000	0.00000000	-0.21559243	-0.09383110	0.08897482	-0.09343771	-0.12891886	-0.36573844	0.22287215	1.45851202	0.00000000	0.00000000	0.19091044	-0.28298881	0.16775421	0.70196514	1.57080000	0.00000000	0.00000000
75.15000000	-0.01027807	0.10126659	-0.03561680	0.04915591	0.91711095	-0.02226641	0.54119565	-0.19431530	-0.09623017	0.71832198	0.13162159	0.00000000	0.00000000	0.01579094	0.16123754	-0.13977094	0.38489046	0.26991126	0.00000000	0.00000000	-0.21537353	-0.08443950	0.06661699	-0.10489111	-0.12417976	-0.39560029	0.21230883	1.46877924	0.00000000	0.00000000	0.20936382	-0.29507390	0.16852305	0.72936000	1.57080000	0.00000000	0.00000000
